<svg xmlns="http://www.w3.org/2000/svg" viewBox="0 0 64 64" role="img" aria-labelledby="title">
  <title id="title">ApiaryLens bee mark</title>
  <path d="M32 3 56 17v30L32 61 8 47V17Z" fill="#fff" stroke="#efa900" stroke-width="5" stroke-linejoin="round"/>
  <ellipse cx="23" cy="29" rx="8" ry="6" fill="#fff" stroke="#171717" stroke-width="2.5" transform="rotate(-28 23 29)"/>
  <ellipse cx="41" cy="29" rx="8" ry="6" fill="#fff" stroke="#171717" stroke-width="2.5" transform="rotate(28 41 29)"/>
  <circle cx="32" cy="23" r="5" fill="#efa900" stroke="#171717" stroke-width="2.5"/>
  <path d="M29 19c-3-5-6-5-8-3M35 19c3-5 6-5 8-3" fill="none" stroke="#171717" stroke-width="2.5" stroke-linecap="round"/>
  <path d="M32 27c7 0 10 6 8 13-1 5-5 10-8 12-3-2-7-7-8-12-2-7 1-13 8-13Z" fill="#efa900" stroke="#171717" stroke-width="2.5"/>
  <path d="M25 34h14M24 40h16M28 48l-7 5M36 48l7 5" fill="none" stroke="#171717" stroke-width="2.5" stroke-linecap="round"/>
</svg>
